<mxfile host="app.diagrams.net" agent="Mozilla/5.0 (Windows NT 10.0; Win64; x64) AppleWebKit/537.36 (KHTML, like Gecko) Chrome/138.0.0.0 Safari/537.36" version="27.0.2">
  <diagram name="Page-1" id="dWoFW3a0jY96sRs41HqG">
    <mxGraphModel dx="1042" dy="1662" grid="1" gridSize="10" guides="1" tooltips="1" connect="1" arrows="1" fold="1" page="1" pageScale="1" pageWidth="850" pageHeight="1100" math="0" shadow="0">
      <root>
        <mxCell id="0" />
        <mxCell id="1" parent="0" />
        <mxCell id="y4kmTvJ1MIiao2L1cIKT-18" value="" style="rounded=1;whiteSpace=wrap;html=1;" vertex="1" parent="1">
          <mxGeometry x="117.45" y="383.5" width="335" height="96.5" as="geometry" />
        </mxCell>
        <mxCell id="y4kmTvJ1MIiao2L1cIKT-9" style="edgeStyle=orthogonalEdgeStyle;rounded=0;orthogonalLoop=1;jettySize=auto;html=1;" edge="1" parent="1" source="y4kmTvJ1MIiao2L1cIKT-1" target="y4kmTvJ1MIiao2L1cIKT-2">
          <mxGeometry relative="1" as="geometry" />
        </mxCell>
        <mxCell id="y4kmTvJ1MIiao2L1cIKT-11" style="edgeStyle=orthogonalEdgeStyle;rounded=0;orthogonalLoop=1;jettySize=auto;html=1;" edge="1" parent="1" source="y4kmTvJ1MIiao2L1cIKT-1" target="y4kmTvJ1MIiao2L1cIKT-4">
          <mxGeometry relative="1" as="geometry" />
        </mxCell>
        <mxCell id="y4kmTvJ1MIiao2L1cIKT-1" value="Application Load Balancer/ API Gateway" style="sketch=0;outlineConnect=0;fontColor=#232F3E;gradientColor=none;strokeColor=#ffffff;fillColor=#232F3E;dashed=0;verticalLabelPosition=middle;verticalAlign=bottom;align=center;html=1;whiteSpace=wrap;fontSize=10;fontStyle=1;spacing=3;shape=mxgraph.aws4.productIcon;prIcon=mxgraph.aws4.application_load_balancer;" vertex="1" parent="1">
          <mxGeometry x="425" y="50" width="55" height="130" as="geometry" />
        </mxCell>
        <mxCell id="y4kmTvJ1MIiao2L1cIKT-2" value="" style="image;sketch=0;aspect=fixed;html=1;points=[];align=center;fontSize=12;image=img/lib/mscae/Service_Bus_Relay.svg;" vertex="1" parent="1">
          <mxGeometry x="260" y="210" width="50" height="50" as="geometry" />
        </mxCell>
        <mxCell id="y4kmTvJ1MIiao2L1cIKT-4" value="" style="image;sketch=0;aspect=fixed;html=1;points=[];align=center;fontSize=12;image=img/lib/mscae/Service_Bus_Relay.svg;" vertex="1" parent="1">
          <mxGeometry x="600" y="210" width="50" height="50" as="geometry" />
        </mxCell>
        <mxCell id="y4kmTvJ1MIiao2L1cIKT-22" style="edgeStyle=orthogonalEdgeStyle;rounded=0;orthogonalLoop=1;jettySize=auto;html=1;entryX=0.5;entryY=0;entryDx=0;entryDy=0;" edge="1" parent="1" source="y4kmTvJ1MIiao2L1cIKT-5" target="y4kmTvJ1MIiao2L1cIKT-18">
          <mxGeometry relative="1" as="geometry">
            <Array as="points">
              <mxPoint x="285" y="384" />
            </Array>
          </mxGeometry>
        </mxCell>
        <mxCell id="y4kmTvJ1MIiao2L1cIKT-5" value="ESB Instance" style="text;html=1;align=center;verticalAlign=middle;resizable=0;points=[];autosize=1;strokeColor=none;fillColor=none;" vertex="1" parent="1">
          <mxGeometry x="235" y="268" width="100" height="30" as="geometry" />
        </mxCell>
        <mxCell id="y4kmTvJ1MIiao2L1cIKT-7" value="ESB Instance" style="text;html=1;align=center;verticalAlign=middle;resizable=0;points=[];autosize=1;strokeColor=none;fillColor=none;" vertex="1" parent="1">
          <mxGeometry x="575" y="268" width="100" height="30" as="geometry" />
        </mxCell>
        <mxCell id="y4kmTvJ1MIiao2L1cIKT-13" value="Logger" style="text;html=1;align=center;verticalAlign=middle;resizable=0;points=[];autosize=1;strokeColor=none;fillColor=none;" vertex="1" parent="1">
          <mxGeometry x="223.62" y="440.1" width="60" height="30" as="geometry" />
        </mxCell>
        <mxCell id="y4kmTvJ1MIiao2L1cIKT-14" value="" style="sketch=0;outlineConnect=0;fontColor=#232F3E;gradientColor=none;fillColor=#8C4FFF;strokeColor=none;dashed=0;verticalLabelPosition=bottom;verticalAlign=top;align=center;html=1;fontSize=12;fontStyle=0;aspect=fixed;pointerEvents=1;shape=mxgraph.aws4.router;" vertex="1" parent="1">
          <mxGeometry x="143.62" y="396.85" width="40" height="40" as="geometry" />
        </mxCell>
        <mxCell id="y4kmTvJ1MIiao2L1cIKT-15" value="Router&amp;nbsp;" style="text;html=1;align=center;verticalAlign=middle;resizable=0;points=[];autosize=1;strokeColor=none;fillColor=none;" vertex="1" parent="1">
          <mxGeometry x="133.62" y="439.1" width="60" height="30" as="geometry" />
        </mxCell>
        <mxCell id="y4kmTvJ1MIiao2L1cIKT-29" style="edgeStyle=orthogonalEdgeStyle;rounded=0;orthogonalLoop=1;jettySize=auto;html=1;entryX=0.5;entryY=0;entryDx=0;entryDy=0;" edge="1" parent="1" source="y4kmTvJ1MIiao2L1cIKT-19" target="y4kmTvJ1MIiao2L1cIKT-23">
          <mxGeometry relative="1" as="geometry" />
        </mxCell>
        <mxCell id="y4kmTvJ1MIiao2L1cIKT-19" value="Microservices (Other services include Logging,Monitoring etc.)" style="text;html=1;align=center;verticalAlign=middle;resizable=0;points=[];autosize=1;strokeColor=none;fillColor=none;" vertex="1" parent="1">
          <mxGeometry x="112.44999999999999" y="480" width="350" height="30" as="geometry" />
        </mxCell>
        <mxCell id="y4kmTvJ1MIiao2L1cIKT-20" value="" style="sketch=0;points=[[0,0,0],[0.25,0,0],[0.5,0,0],[0.75,0,0],[1,0,0],[0,1,0],[0.25,1,0],[0.5,1,0],[0.75,1,0],[1,1,0],[0,0.25,0],[0,0.5,0],[0,0.75,0],[1,0.25,0],[1,0.5,0],[1,0.75,0]];outlineConnect=0;fontColor=#232F3E;fillColor=#01A88D;strokeColor=#ffffff;dashed=0;verticalLabelPosition=bottom;verticalAlign=top;align=center;html=1;fontSize=12;fontStyle=0;aspect=fixed;shape=mxgraph.aws4.resourceIcon;resIcon=mxgraph.aws4.transfer_for_sftp;" vertex="1" parent="1">
          <mxGeometry x="323.62" y="396.85" width="38.25" height="38.25" as="geometry" />
        </mxCell>
        <mxCell id="y4kmTvJ1MIiao2L1cIKT-21" value="Transformer" style="text;html=1;align=center;verticalAlign=middle;resizable=0;points=[];autosize=1;strokeColor=none;fillColor=none;" vertex="1" parent="1">
          <mxGeometry x="298.62" y="441.97" width="90" height="30" as="geometry" />
        </mxCell>
        <mxCell id="y4kmTvJ1MIiao2L1cIKT-23" value="" style="rounded=1;whiteSpace=wrap;html=1;" vertex="1" parent="1">
          <mxGeometry x="147.45" y="560" width="280" height="96.5" as="geometry" />
        </mxCell>
        <mxCell id="y4kmTvJ1MIiao2L1cIKT-25" value="" style="image;aspect=fixed;html=1;points=[];align=center;fontSize=12;image=img/lib/azure2/security/Multifactor_Authentication.svg;" vertex="1" parent="1">
          <mxGeometry x="393.67" y="393.40000000000003" width="35.4" height="43.45" as="geometry" />
        </mxCell>
        <mxCell id="y4kmTvJ1MIiao2L1cIKT-26" value="Auth" style="text;html=1;align=center;verticalAlign=middle;resizable=0;points=[];autosize=1;strokeColor=none;fillColor=none;" vertex="1" parent="1">
          <mxGeometry x="386.37" y="441.97" width="50" height="30" as="geometry" />
        </mxCell>
        <mxCell id="y4kmTvJ1MIiao2L1cIKT-27" value="Business Services" style="text;html=1;align=center;verticalAlign=middle;resizable=0;points=[];autosize=1;strokeColor=none;fillColor=none;" vertex="1" parent="1">
          <mxGeometry x="224.95" y="656.5" width="120" height="30" as="geometry" />
        </mxCell>
        <mxCell id="y4kmTvJ1MIiao2L1cIKT-28" value="" style="shape=image;html=1;verticalAlign=top;verticalLabelPosition=bottom;labelBackgroundColor=#ffffff;imageAspect=0;aspect=fixed;image=https://cdn0.iconfinder.com/data/icons/analytic-investment-and-balanced-scorecard/512/5_money_transfer_fund_analysis-128.png" vertex="1" parent="1">
          <mxGeometry x="170" y="570" width="50" height="50" as="geometry" />
        </mxCell>
        <mxCell id="y4kmTvJ1MIiao2L1cIKT-30" value="" style="shape=image;html=1;verticalAlign=top;verticalLabelPosition=bottom;labelBackgroundColor=#ffffff;imageAspect=0;aspect=fixed;image=https://cdn0.iconfinder.com/data/icons/analytic-investment-and-balanced-scorecard/512/5_money_transfer_fund_analysis-128.png" vertex="1" parent="1">
          <mxGeometry x="253.57" y="570" width="50" height="50" as="geometry" />
        </mxCell>
        <mxCell id="y4kmTvJ1MIiao2L1cIKT-31" value="" style="shape=image;html=1;verticalAlign=top;verticalLabelPosition=bottom;labelBackgroundColor=#ffffff;imageAspect=0;aspect=fixed;image=https://cdn0.iconfinder.com/data/icons/analytic-investment-and-balanced-scorecard/512/5_money_transfer_fund_analysis-128.png" vertex="1" parent="1">
          <mxGeometry x="343.67" y="570" width="50" height="50" as="geometry" />
        </mxCell>
        <mxCell id="y4kmTvJ1MIiao2L1cIKT-32" value="Fund Transfer" style="text;html=1;align=center;verticalAlign=middle;resizable=0;points=[];autosize=1;strokeColor=none;fillColor=none;" vertex="1" parent="1">
          <mxGeometry x="145" y="620" width="100" height="30" as="geometry" />
        </mxCell>
        <mxCell id="y4kmTvJ1MIiao2L1cIKT-33" value="Debit Account" style="text;html=1;align=center;verticalAlign=middle;resizable=0;points=[];autosize=1;strokeColor=none;fillColor=none;" vertex="1" parent="1">
          <mxGeometry x="228.57" y="620" width="100" height="30" as="geometry" />
        </mxCell>
        <mxCell id="y4kmTvJ1MIiao2L1cIKT-34" value="Credit Account" style="text;html=1;align=center;verticalAlign=middle;resizable=0;points=[];autosize=1;strokeColor=none;fillColor=none;" vertex="1" parent="1">
          <mxGeometry x="315" y="620" width="100" height="30" as="geometry" />
        </mxCell>
        <mxCell id="y4kmTvJ1MIiao2L1cIKT-37" style="edgeStyle=orthogonalEdgeStyle;rounded=0;orthogonalLoop=1;jettySize=auto;html=1;" edge="1" parent="1" source="y4kmTvJ1MIiao2L1cIKT-35" target="y4kmTvJ1MIiao2L1cIKT-1">
          <mxGeometry relative="1" as="geometry" />
        </mxCell>
        <mxCell id="y4kmTvJ1MIiao2L1cIKT-35" value="" style="image;html=1;image=img/lib/clip_art/computers/Virtual_Application_128x128.png" vertex="1" parent="1">
          <mxGeometry x="425" y="-80" width="55" height="60" as="geometry" />
        </mxCell>
        <mxCell id="y4kmTvJ1MIiao2L1cIKT-38" value="External Application" style="text;html=1;align=center;verticalAlign=middle;resizable=0;points=[];autosize=1;strokeColor=none;fillColor=none;" vertex="1" parent="1">
          <mxGeometry x="388.62" y="-110" width="130" height="30" as="geometry" />
        </mxCell>
        <mxCell id="y4kmTvJ1MIiao2L1cIKT-39" value="" style="image;aspect=fixed;perimeter=ellipsePerimeter;html=1;align=center;shadow=0;dashed=0;fontColor=#4277BB;labelBackgroundColor=default;fontSize=12;spacingTop=3;image=img/lib/ibm/infrastructure/monitoring_logging.svg;" vertex="1" parent="1">
          <mxGeometry x="235" y="393.4" width="48.57" height="48.57" as="geometry" />
        </mxCell>
      </root>
    </mxGraphModel>
  </diagram>
</mxfile>
